<?xml version="1.0" standalone="no"?>
<!DOCTYPE svg PUBLIC "-//W3C//DTD SVG 20010904//EN"
 "http://www.w3.org/TR/2001/REC-SVG-20010904/DTD/svg10.dtd">
<svg version="1.0" xmlns="http://www.w3.org/2000/svg"
 width="300.000000pt" height="145.000000pt" viewBox="0 0 300.000000 145.000000"
 preserveAspectRatio="xMidYMid meet">
<metadata>
Created by potrace 1.10, written by Peter Selinger 2001-2011
</metadata>
<g transform="translate(0.000000,145.000000) scale(0.100000,-0.100000)"
fill="#000000" stroke="none">
<path d="M1340 1410 c-12 -8 -10 -10 11 -10 14 0 41 -10 60 -23 47 -31 53 -85
13 -116 -15 -12 -41 -21 -60 -21 -39 0 -42 11 -19 75 18 49 18 52 3 37 -7 -7
-20 -33 -28 -57 l-15 -44 -57 36 c-68 43 -130 53 -176 29 -18 -9 -32 -18 -32
-20 0 -2 23 -3 52 -2 42 1 53 -2 56 -16 3 -15 -4 -18 -46 -18 -31 0 -65 -8
-93 -23 -45 -22 -171 -119 -164 -125 2 -2 34 15 71 37 37 22 83 44 102 47 32
6 135 1 197 -11 29 -5 29 -5 5 5 -42 19 -62 41 -49 57 6 7 17 13 23 13 20 0
127 -86 146 -118 18 -29 22 -31 40 -20 24 15 25 24 5 32 -24 9 -17 26 10 26
33 0 81 25 89 46 5 14 10 13 30 -9 14 -15 37 -29 53 -32 57 -13 60 -15 39 -31
-20 -14 -20 -14 0 -29 17 -13 21 -12 37 6 9 12 17 26 17 33 1 18 127 99 144
93 27 -11 18 -36 -21 -57 -37 -20 -37 -21 -8 -15 63 12 154 17 187 11 18 -3
68 -26 111 -50 42 -24 77 -41 77 -38 -1 11 -140 116 -179 134 -20 10 -57 18
-83 18 -41 0 -48 3 -48 20 0 15 7 20 29 20 16 0 41 -4 55 -10 36 -13 33 6 -4
25 -54 28 -131 11 -210 -45 -37 -26 -40 -25 -40 8 0 25 -33 92 -45 92 -3 0 2
-16 10 -36 8 -20 15 -49 15 -65 0 -23 -4 -29 -22 -29 -44 0 -69 13 -83 41 -25
48 13 105 78 116 30 4 36 8 23 15 -26 15 -94 -12 -125 -49 l-28 -34 -17 25
c-30 46 -104 77 -136 56z"/>
<path d="M75 860 l0 -50 36 0 c40 0 69 24 69 56 0 30 -20 44 -65 44 l-40 0 0
-50z m73 23 c12 -23 -3 -63 -23 -63 -11 0 -15 11 -15 40 0 43 21 55 38 23z"/>
<path d="M195 860 l0 -50 43 0 c31 0 42 4 42 15 0 18 -17 20 -22 3 -5 -13 -38
-4 -38 10 0 5 10 14 23 20 l22 11 -22 0 c-14 1 -23 7 -23 16 0 18 36 20 43 3
3 -8 6 -6 6 5 1 13 -7 17 -36 17 l-38 0 0 -50z"/>
<path d="M296 895 c-3 -9 5 -25 20 -39 28 -26 16 -48 -13 -24 -14 11 -16 11
-11 -2 7 -21 42 -24 58 -5 11 13 10 19 -9 38 -25 27 -27 42 -6 33 8 -3 15 -1
15 4 0 16 -47 11 -54 -5z"/>
<path d="M419 880 c-15 -17 -24 -30 -21 -30 3 0 -3 -9 -13 -20 -18 -19 -17
-20 5 -20 13 0 20 3 17 7 -8 8 11 33 25 33 6 0 8 -9 5 -20 -4 -14 0 -20 11
-20 14 0 17 10 17 50 0 28 -4 50 -10 50 -5 -1 -22 -14 -36 -30z"/>
<path d="M495 860 c0 -38 4 -50 15 -50 12 0 14 10 12 45 -3 31 0 45 8 45 8 0
10 -8 7 -22 -9 -32 46 -118 75 -118 4 0 8 5 8 10 0 6 -6 10 -13 10 -19 0 -52
60 -52 95 0 26 -4 30 -30 33 -30 3 -30 2 -30 -48z"/>
<path d="M585 860 c0 -38 4 -50 15 -50 12 0 14 10 12 45 -3 31 0 45 8 45 8 0
10 -8 7 -21 -9 -34 55 -119 89 -119 2 0 4 5 4 10 0 6 -6 10 -14 10 -20 0 -70
80 -58 92 18 18 1 38 -32 38 -31 0 -31 -1 -31 -50z"/>
<path d="M684 885 c-15 -23 -15 -27 0 -50 11 -17 26 -25 44 -25 35 0 52 16 52
50 0 34 -17 50 -52 50 -18 0 -33 -8 -44 -25z m71 -5 c9 -29 -4 -60 -25 -60
-21 0 -36 39 -26 65 8 22 44 18 51 -5z"/>
<path d="M805 863 c0 -39 4 -49 20 -54 25 -7 55 0 55 13 0 6 -11 7 -26 4 -26
-7 -26 -6 -22 39 2 35 0 45 -12 45 -11 0 -15 -12 -15 -47z"/>
<path d="M905 863 c0 -35 4 -50 17 -55 20 -8 58 1 58 14 0 6 -11 7 -26 4 -26
-7 -26 -6 -22 39 2 35 0 45 -12 45 -11 0 -15 -12 -15 -47z"/>
<path d="M1040 881 c-39 -45 -53 -71 -37 -71 6 0 18 9 25 20 7 11 17 20 23 20
6 0 9 -9 6 -20 -4 -14 0 -20 11 -20 14 0 16 9 14 50 -2 27 -7 50 -11 50 -3 0
-18 -13 -31 -29z"/>
<path d="M1117 875 c3 -21 1 -41 -7 -50 -11 -13 -7 -15 28 -15 46 0 72 20 72
54 0 32 -19 46 -61 46 -37 0 -38 0 -32 -35z m67 3 c13 -21 -2 -51 -28 -56 -13
-3 -16 5 -16 38 0 33 3 41 16 38 9 -2 22 -11 28 -20z"/>
<path d="M1242 898 c-15 -15 -15 -61 0 -76 7 -7 24 -12 38 -12 33 0 50 17 50
50 0 14 -5 31 -12 38 -15 15 -61 15 -76 0z m64 -24 c8 -30 -16 -60 -40 -51
-16 6 -23 57 -9 70 16 16 43 6 49 -19z"/>
<path d="M1355 860 c0 -38 4 -50 15 -50 12 0 14 10 12 45 -3 31 0 45 8 45 8 0
10 -8 7 -22 -10 -36 59 -135 80 -115 2 2 -12 21 -32 42 -26 29 -34 46 -32 69
2 28 -1 31 -28 34 -30 3 -30 2 -30 -48z"/>
<path d="M1521 870 c10 -21 19 -44 19 -50 0 -16 17 -12 24 6 8 21 8 26 -3 20
-8 -5 -26 40 -23 57 1 4 -7 7 -17 7 -19 0 -19 -1 0 -40z"/>
<path d="M1550 903 c1 -5 11 -28 24 -52 l22 -43 26 51 c17 35 21 51 12 51 -7
0 -15 -13 -19 -30 -7 -33 -25 -41 -25 -11 0 11 -3 21 -7 24 -5 2 -3 2 4 1 7
-2 15 1 18 6 4 6 -7 10 -24 10 -17 0 -31 -3 -31 -7z"/>
<path d="M1675 873 c2 -20 -1 -43 -7 -50 -10 -12 -4 -14 32 -11 28 2 45 8 48
18 4 12 2 13 -9 3 -7 -7 -19 -13 -26 -13 -19 0 -16 27 5 39 15 9 14 10 -6 11
-15 0 -22 5 -19 13 2 6 14 12 26 11 11 0 21 3 21 8 0 4 -16 8 -35 8 -34 0 -35
-1 -30 -37z"/>
<path d="M1775 860 c0 -47 1 -50 26 -50 31 0 54 23 42 42 -4 7 -8 22 -8 33 0
15 -8 21 -30 23 -30 3 -30 2 -30 -48z"/>
<path d="M1925 860 c0 -46 2 -50 25 -50 19 0 21 3 12 12 -17 17 -15 26 8 33
11 4 18 10 15 15 -3 5 -12 7 -20 3 -9 -3 -15 1 -15 11 0 19 21 21 38 4 9 -9
12 -8 12 5 0 13 -9 17 -37 17 l-38 0 0 -50z"/>
<path d="M2018 865 c3 -33 9 -46 23 -50 34 -11 59 4 59 35 0 16 3 35 6 44 4
10 1 16 -8 16 -10 0 -13 -10 -11 -32 4 -41 -9 -63 -32 -54 -13 5 -16 15 -13
46 3 31 0 40 -12 40 -12 0 -14 -10 -12 -45z"/>
<path d="M2135 863 c0 -39 4 -49 20 -54 25 -7 55 0 55 13 0 6 -11 7 -25 4 -23
-6 -25 -4 -25 27 0 18 5 38 12 45 9 9 7 12 -12 12 -23 0 -25 -4 -25 -47z"/>
<path d="M2235 863 c0 -39 4 -49 20 -54 25 -7 55 0 55 13 0 6 -11 7 -26 4 -26
-7 -26 -6 -22 39 2 35 0 45 -12 45 -11 0 -15 -12 -15 -47z"/>
<path d="M2393 893 c-4 -10 2 -23 15 -34 22 -17 29 -39 14 -39 -4 0 -13 5 -20
12 -9 9 -12 8 -12 -6 0 -13 7 -17 28 -14 35 4 43 41 13 58 -27 14 -27 34 -1
27 11 -3 20 -1 20 4 0 16 -50 10 -57 -8z"/>
<path d="M2471 893 c0 -10 3 -13 6 -5 11 29 25 9 21 -33 -2 -35 0 -45 12 -45
12 0 14 10 12 45 -4 46 4 55 27 33 11 -11 13 -10 9 2 -3 9 -20 16 -46 18 -35
3 -42 0 -41 -15z"/>
<path d="M2634 899 c-3 -6 -1 -15 6 -19 9 -5 9 -9 1 -14 -6 -4 -11 -2 -11 3 0
18 -34 -8 -47 -35 -10 -21 -9 -24 10 -24 11 0 17 3 14 7 -8 8 11 33 25 33 6 0
8 -9 5 -20 -4 -14 0 -20 11 -20 14 0 16 9 14 50 -4 48 -13 62 -28 39z"/>
<path d="M2702 898 c-15 -15 -16 -60 0 -76 7 -7 24 -12 39 -12 28 0 47 16 34
28 -3 3 -10 0 -14 -7 -16 -25 -46 -8 -49 27 -4 38 19 52 50 33 16 -10 19 -10
16 1 -6 17 -60 22 -76 6z"/>
<path d="M2800 860 c0 -44 2 -50 21 -50 18 0 19 2 9 15 -7 9 -10 18 -7 21 3 4
24 -13 46 -37 23 -23 44 -39 48 -35 5 4 0 12 -9 17 -9 5 -27 26 -39 46 l-22
36 22 18 c22 18 22 19 3 19 -12 0 -23 -9 -27 -20 -3 -11 -11 -20 -16 -20 -6 0
-7 9 -4 20 5 14 2 20 -9 20 -12 0 -16 -11 -16 -50z"/>
<path d="M1565 618 c-15 -42 -35 -101 -35 -104 0 -2 5 -4 10 -4 6 0 10 7 10
15 0 8 7 15 15 15 9 0 18 -7 21 -15 4 -8 10 -15 15 -15 5 0 0 22 -10 49 -15
36 -17 51 -8 60 8 8 8 11 -1 11 -7 0 -15 -6 -17 -12z"/>
<path d="M620 584 c-20 -24 -1 -69 29 -69 30 0 46 24 37 58 -7 31 -45 37 -66
11z m48 -27 c3 -22 -1 -27 -17 -27 -15 0 -21 6 -21 23 0 46 33 49 38 4z"/>
<path d="M730 555 c0 -25 4 -45 9 -45 10 0 23 69 15 82 -13 21 -24 4 -24 -37z"/>
<path d="M784 575 c-3 -14 -10 -22 -15 -19 -5 3 -9 -4 -9 -15 0 -28 14 -27 29
2 11 21 11 21 8 -5 -3 -16 0 -28 4 -28 5 0 9 20 9 45 0 49 -16 61 -26 20z"/>
<path d="M861 559 c-12 -40 -8 -69 5 -35 8 20 34 21 34 1 0 -8 5 -15 10 -15 6
0 10 4 10 9 0 17 -30 81 -39 81 -4 0 -13 -18 -20 -41z"/>
<path d="M960 571 c0 -16 -3 -36 -6 -45 -3 -9 -1 -16 5 -16 6 0 11 10 11 23
l1 22 20 -24 c11 -13 22 -21 26 -18 3 4 1 13 -5 20 -9 10 -9 16 0 25 17 17 1
42 -27 42 -21 0 -25 -5 -25 -29z"/>
<path d="M1110 555 c0 -25 5 -45 10 -45 6 0 10 9 10 20 0 13 7 20 19 20 14 0
18 -5 14 -20 -3 -11 0 -20 6 -20 6 0 11 19 11 45 0 26 -5 45 -11 45 -6 0 -9
-7 -5 -15 4 -10 -1 -15 -14 -15 -11 0 -20 7 -20 15 0 8 -4 15 -10 15 -5 0 -10
-20 -10 -45z"/>
<path d="M1230 555 c0 -44 1 -45 31 -45 17 0 28 4 24 10 -3 6 -15 10 -26 10
-26 0 -24 18 4 23 22 4 22 4 -3 14 l-25 11 25 10 25 11 -27 0 c-27 1 -28 -1
-28 -44z"/>
<path d="M1328 555 c-2 -25 0 -45 4 -45 5 0 8 10 8 23 l1 22 18 -22 c23 -28
35 -30 22 -5 -7 13 -7 22 1 30 17 17 1 42 -26 42 -21 0 -24 -5 -28 -45z"/>
<path d="M1431 553 c2 -46 2 -46 8 -13 l7 35 17 -32 c24 -45 35 -41 35 12 0
51 -18 63 -19 13 l0 -33 -16 33 c-23 45 -33 40 -32 -15z"/>
<path d="M1640 555 c0 -26 5 -45 11 -45 7 0 10 12 7 30 -3 17 -3 30 -2 30 2 0
10 -13 19 -30 22 -43 35 -37 35 15 0 25 -4 45 -10 45 -5 0 -10 -12 -10 -27
l-1 -28 -15 28 c-21 40 -34 33 -34 -18z"/>
<path d="M1750 554 c0 -43 1 -45 26 -42 34 4 49 27 40 61 -5 22 -12 27 -36 27
-29 0 -30 -2 -30 -46z m48 3 c2 -19 -1 -27 -12 -27 -11 0 -16 10 -16 31 0 38
24 35 28 -4z"/>
<path d="M1860 555 c0 -43 1 -45 30 -45 17 0 30 5 30 10 0 6 -9 10 -20 10 -11
0 -20 5 -20 10 0 6 7 10 15 10 8 0 15 5 15 10 0 6 -7 10 -15 10 -23 0 -18 18
8 23 16 3 13 5 -10 6 -33 1 -33 0 -33 -44z"/>
<path d="M1978 593 c22 -4 22 -5 4 -31 -35 -51 -35 -52 2 -52 39 0 50 17 15
22 l-21 3 21 27 c28 35 27 38 -11 37 -24 -1 -27 -3 -10 -6z"/>
<path d="M2110 555 c0 -45 20 -66 21 -22 l0 22 16 -22 c19 -27 38 -31 24 -5
-5 10 -6 24 -1 32 14 22 0 40 -31 40 -28 0 -29 -2 -29 -45z"/>
<path d="M2220 555 c0 -41 2 -45 25 -45 14 0 25 5 25 10 0 6 -9 10 -20 10 -11
0 -20 5 -20 10 0 6 7 10 15 10 8 0 15 5 15 10 0 6 -7 10 -15 10 -23 0 -18 18
8 23 19 4 18 4 -5 6 -27 1 -28 -1 -28 -44z"/>
<path d="M2311 578 c6 -12 15 -33 20 -47 7 -24 7 -24 8 -4 1 12 5 24 10 27 12
8 21 46 11 46 -5 0 -12 -10 -16 -22 l-7 -23 -8 23 c-5 12 -13 22 -19 22 -7 0
-7 -7 1 -22z"/>
<path d="M1326 314 c6 -3 40 -10 75 -18 55 -11 61 -14 44 -24 -15 -8 -36 -7
-80 4 -69 16 -239 29 -190 15 17 -5 66 -15 110 -21 44 -7 84 -14 88 -17 5 -3
-22 -23 -60 -45 -37 -22 -78 -49 -90 -60 -27 -25 -28 -16 -8 41 25 72 -2 44
-31 -31 -15 -40 -35 -90 -46 -111 -20 -41 -9 -51 15 -13 15 23 159 146 171
146 3 0 -3 -23 -14 -50 -11 -28 -20 -53 -20 -55 0 -3 30 17 68 44 37 26 83 57
103 69 l35 21 70 -45 c38 -25 81 -57 96 -72 33 -31 45 -24 25 15 -8 15 -18 39
-22 52 l-7 24 33 -24 c18 -13 64 -52 101 -87 37 -36 68 -58 68 -50 0 8 -4 18
-9 23 -5 6 -24 46 -41 90 -40 102 -68 138 -35 46 8 -22 11 -41 7 -41 -5 0 -26
13 -48 29 -21 15 -61 40 -88 54 l-48 26 38 10 c22 6 74 14 117 20 43 5 82 13
85 17 11 11 -156 -4 -217 -20 -51 -13 -91 -12 -91 4 0 4 33 13 73 20 39 7 66
15 59 17 -7 3 -48 -2 -91 -11 -71 -15 -86 -15 -151 -1 -67 14 -118 19 -94 9z
m194 -54 c12 -8 12 -10 -3 -16 -9 -3 -29 -3 -44 1 -21 5 -24 8 -12 16 18 11
40 11 59 -1z m-75 -30 c3 -5 -8 -16 -25 -25 -28 -15 -30 -14 -30 4 0 26 42 43
55 21z m139 4 c9 -3 16 -15 16 -25 0 -23 -2 -23 -41 0 -20 12 -26 21 -17 24
19 8 24 8 42 1z"/>
</g>
</svg>
