<svg id="wave" style="transform:rotate(0deg); transition: 0.3s" viewBox="0 0 1440 180" version="1.1" xmlns="http://www.w3.org/2000/svg"><defs><linearGradient id="sw-gradient-0" x1="0" x2="0" y1="1" y2="0"><stop stop-color="rgba(0.312, 0.32, 0.31, 1)" offset="0%"></stop><stop stop-color="rgba(78.228, 86.838, 80.421, 1)" offset="100%"></stop></linearGradient></defs><path style="transform:translate(0, 0px); opacity:1" fill="url(#sw-gradient-0)" d="M0,18L360,162L720,90L1080,162L1440,54L1800,36L2160,144L2520,36L2880,54L3240,18L3600,108L3960,162L4320,36L4680,144L5040,72L5400,0L5760,162L6120,18L6480,0L6840,54L7200,108L7560,72L7920,36L8280,108L8640,18L8640,180L8280,180L7920,180L7560,180L7200,180L6840,180L6480,180L6120,180L5760,180L5400,180L5040,180L4680,180L4320,180L3960,180L3600,180L3240,180L2880,180L2520,180L2160,180L1800,180L1440,180L1080,180L720,180L360,180L0,180Z"></path></svg>